<?xml version="1.0" encoding="utf-8"?>
<!-- Generator: Adobe Illustrator 27.1.1, SVG Export Plug-In . SVG Version: 6.00 Build 0)  -->
<svg version="1.1" id="Capa_1" xmlns="http://www.w3.org/2000/svg" xmlns:xlink="http://www.w3.org/1999/xlink" x="0px" y="0px"
	 viewBox="0 0 1080 1080" style="enable-background:new 0 0 1080 1080;" xml:space="preserve">
<style type="text/css">
	.st0{fill:#C92420;}
</style>
<g>
	<path class="st0" d="M563.4,761.7c-2.7-1.7-3.8-5-2.6-7.7l35.8-81.2c9.7-21.7,8.3-46.6-3.8-66.9c-9.5-16-24.2-31.8-39.7-48.5
		c-5.9-6.3-11.8-12.7-17.5-19.2c-5.7-6.5-6.8-16-2.6-23.7l11.8-22c1.7-3.1,0.5-7-2.6-8.6c-3.1-1.7-7-0.5-8.6,2.6l-11.8,22
		c-6.6,12.4-4.9,27.8,4.3,38.2c5.8,6.6,11.8,13,17.7,19.4c15.1,16.2,29.3,31.5,38.1,46.4c9.9,16.6,11.1,37.2,3.1,55.1l-35.8,81.2
		c-3.8,8.5-0.7,18.5,7.3,23.6c9.1,5.9,14.3,12.2,15.3,18.8c0.4,2.4-1,3.9-1.9,4.6c-1.3,1-3.5,1.8-5.8,0.8l-25.3-10.8
		c-9-3.7-15.1-9.5-18.4-17.7c-10.8-26.3,8.1-71.1,20.6-100.7c2-4.8,3.9-9.3,5.5-13.3c4.3-10.8,0.6-22.9-9-29.4l-120.8-81.9
		c-11.9-8-16.5-23.5-10.9-36.7c1.4-3.3-0.2-7-3.4-8.4c-3.3-1.4-7,0.2-8.4,3.4c-7.9,18.8-1.4,40.8,15.5,52.2l5.9,4
		c-10.1,1.6-19.1,6.3-25.3,13.7c-8.3,10-7.5,19.3-5.2,25.3c3.9,10.6,14.6,17.7,26.7,17.7h39.8l18.1,27.8l-47.2,56.4
		c-15.6-11.4-34.8-18.2-55.6-18.2c-52.1,0-94.6,42.4-94.6,94.6c0,52.2,42.4,94.6,94.6,94.6c50,0,90.9-39,94.2-88.2h27.2
		c3.5,0,6.4-2.9,6.4-6.4s-2.9-6.4-6.4-6.4H461c-1.6-24.2-12.4-45.9-28.9-61.8l44.7-53.4l18.8,28.9c1.2,1.9,3.3,2.9,5.4,2.9
		c1.2,0,2.4-0.3,3.5-1c3-1.9,3.8-5.9,1.9-8.8l-23.1-35.4c-0.2-0.3-0.4-0.6-0.6-0.9l-16-24.6h32.4l31.3,21.2
		c4.6,3.1,6.4,8.9,4.3,14.1c-1.6,3.9-3.4,8.3-5.4,13.1c-13.4,31.6-33.5,79.3-20.7,110.6c4.7,11.3,13.2,19.6,25.3,24.6l25.2,10.7
		c2.3,1,4.8,1.5,7.2,1.5c4.1,0,8.1-1.4,11.5-4c5.2-4.1,7.6-10.3,6.6-16.7C582.7,778.9,575.7,769.6,563.4,761.7z M366.8,856.5
		c-45.1,0-81.8-36.7-81.8-81.8c0-45.1,36.7-81.8,81.8-81.8c17.7,0,34,5.7,47.4,15.2l-61.1,72.9h95.1
		C445,823.3,409.7,856.5,366.8,856.5z M448.3,768.4h-67.8l43.5-52C437.7,729.9,446.7,748.1,448.3,768.4z M411.7,601.4
		c-6.8,0-12.7-3.8-14.7-9.3c-1-2.7-1.7-7,3.1-12.7c5.2-6.2,13.5-9.8,22.7-9.8h10.5l47,31.9H411.7z"/>
	<path class="st0" d="M747,680.2c-7.3,0-14.3,0.9-21.1,2.5l-13.1-41.1l5.1-5.5h-6.9l-31-97.7c2.7,0.9,5.5,1.6,8.6,1.6
		c2.5,0,5-0.3,7.7-1.1c5.4-1.6,9.7-5.9,11.4-11.5c2.5-8.2,8-36.4-25.7-52.7l-61.8-45.7c-1.7-1.3-2.9-3.1-3.5-5.1
		c-6.9-26.5-33.2-112.9-81.1-112.9c-1.8,0-3.7,0.1-5.4,0.3c-6.7,0.6-13.3,2.5-19.3,5.5c5.3-10.5,1.6-23.4-8.5-29.4l-98.2-58.6
		c-5.2-3.1-11.3-4-17.2-2.4c-5.9,1.5-10.7,5.3-13.7,10.5L353.6,271c0,0,0,0.1-0.1,0.1c0,0.1-0.1,0.2-0.1,0.3l-71.8,125.1
		c-3.5,6.1-1.4,14,4.7,17.6l115.6,68c1.1,0.7,2.4,1,3.6,1.3c1.2,1.8,3.1,3,5.3,3c0.2,0,0.3,0,0.5,0c66-5.2,117.1-52.7,119.2-54.7
		c2.6-2.4,2.7-6.5,0.3-9c-2.4-2.6-6.5-2.7-9-0.3c-0.5,0.4-43.4,40.3-98.9,49.7L489,358.6l0.3,0.2l5.7-10.5
		c8.1-13.9,21.7-23,36.4-24.4c1.4-0.1,2.7-0.2,4.2-0.2c39.7,0,64.2,86,68.7,103.3c1.3,4.8,4.2,9.1,8.2,12.1l62.8,46.3
		c22.8,11.2,23.5,26.9,20.1,38.1c-0.4,1.5-1.5,2.6-2.8,3c-15.8,4.6-28.2-20.8-28.4-21.1l-1-2.1l-88.1-41.9c-2.2-1.1-3.9-2.9-4.8-5.2
		l-29-77c-1.2-3.3-4.9-5-8.2-3.7c-3.3,1.2-5,4.9-3.7,8.2l29,77c2,5.4,6,9.7,11.2,12.2l84.2,40c1.5,2.7,4.5,7.7,8.7,12.6l35,110.3
		h-65.5c-3.5,0-6.4,2.9-6.4,6.4s2.9,6.4,6.4,6.4h56.6l-96.8,105.1c-2.4,2.6-2.2,6.6,0.4,9c1.2,1.1,2.8,1.7,4.3,1.7
		c1.7,0,3.4-0.7,4.7-2.1l101.5-110.1l10.8,34c-35.7,13.5-61.2,48-61.2,88.4c0,52.2,42.4,94.6,94.6,94.6c52.1,0,94.6-42.4,94.6-94.6
		C841.6,722.6,799.1,680.2,747,680.2z M408.3,471l-115.7-68.2l68.7-119.7l116.6,69L408.3,471z M499.5,310.8l-15.4,30.1l-116.4-68.8
		l16.7-29c1.3-2.3,3.4-3.9,5.9-4.5c2.5-0.7,5.1-0.3,7.4,1l98.2,58.6C500.2,300.7,501.8,306.3,499.5,310.8z M747,856.5
		c-45.1,0-81.8-36.7-81.8-81.8c0-34.7,21.8-64.3,52.3-76.2l23.4,73.6c0.9,2.7,3.4,4.5,6.1,4.5c0.6,0,1.3-0.1,1.9-0.3
		c3.4-1.1,5.2-4.7,4.2-8l-23.3-73.5c5.6-1.2,11.3-1.9,17.2-1.9c45.1,0,81.8,36.7,81.8,81.8C828.8,819.9,792.1,856.5,747,856.5z"/>
	<path class="st0" d="M615.8,617.7c-1.5,3.2-0.1,7,3.1,8.5c0.9,0.4,1.8,0.6,2.7,0.6c2.4,0,4.7-1.4,5.8-3.7l4.2-9.1
		c6-13.1,4.4-28.2-4-38.5c-1.9-2.3-4.1-4.4-6.5-6.2l-54.9-40.9c-2.8-2.1-6.8-1.5-8.9,1.3c-2.1,2.8-1.5,6.8,1.3,8.9l54.9,40.9
		c1.6,1.2,3.1,2.6,4.3,4.1c5.3,6.5,6.2,16.4,2.2,25L615.8,617.7z"/>
	<path class="st0" d="M211.8,535.4h118.9c3.5,0,6.4-2.9,6.4-6.4s-2.9-6.4-6.4-6.4H211.8c-3.5,0-6.4,2.9-6.4,6.4
		S208.3,535.4,211.8,535.4z"/>
	<path class="st0" d="M337.1,585.5c0-3.5-2.9-6.4-6.4-6.4h-170c-3.5,0-6.4,2.9-6.4,6.4s2.9,6.4,6.4,6.4h170
		C334.3,591.8,337.1,589,337.1,585.5z"/>
	<path class="st0" d="M299.8,642.4c0-3.5-2.9-6.4-6.4-6.4h-99.3c-3.5,0-6.4,2.9-6.4,6.4s2.9,6.4,6.4,6.4h99.3
		C296.9,648.8,299.8,645.9,299.8,642.4z"/>
	<path class="st0" d="M611.9,329.2h6.4V287c0-15.2,12.3-27.5,27.5-27.5h16.1c-0.3,8.6,1.2,22.8,11.4,35.6c-1.9,1.2-3.7,2.1-5.4,2.6
		c-5.9,1.7-9.8,6.9-9.7,12.8c0,5-1,11.8-6,16.4c-5,4.5-13.2,6.3-24.5,5.2c-3.6-0.1-6.6,2.2-7,5.7c-0.3,3.5,2.2,6.6,5.7,7
		c2.6,0.2,5,0.4,7.4,0.4c11.5,0,20.5-3,26.9-8.8c8.5-7.7,10.2-18.4,10.7-26.4c3-0.8,6-2.3,8.9-4.2c3.2-2.1,5.3-5.5,5.9-9.2
		c0.5-3.8-0.6-7.6-3.1-10.5c-7.8-9.2-8.7-20.1-8.5-26.4H688v-6.4c0-22.8-10.1-44.2-27.7-58.8c-17.6-14.5-40.8-20.3-63.6-15.9
		c-29.8,5.8-53.6,29.7-59.4,59.4c-4.4,22.8,1.4,46,15.9,63.6C567.6,319.1,589,329.2,611.9,329.2z M549.8,240.4
		c4.8-24.7,24.6-44.5,49.3-49.3c4.2-0.8,8.4-1.2,12.6-1.2c14.7,0,29,5,40.4,14.4c13,10.7,21.1,26,22.8,42.5h-29.1
		c-22.2,0-40.3,18.1-40.3,40.3v29.1c-16.6-1.7-31.8-9.7-42.5-22.7C550.9,278.7,546.1,259.4,549.8,240.4z"/>
</g>
</svg>
