<?xml version="1.0" encoding="utf-8"?>
<!-- Generator: Adobe Illustrator 27.1.1, SVG Export Plug-In . SVG Version: 6.00 Build 0)  -->
<svg version="1.1" id="Capa_1" xmlns="http://www.w3.org/2000/svg" xmlns:xlink="http://www.w3.org/1999/xlink" x="0px" y="0px"
	 viewBox="0 0 1080 1080" style="enable-background:new 0 0 1080 1080;" xml:space="preserve">
<style type="text/css">
	.st0{fill:#C92420;}
</style>
<g>
	<path class="st0" d="M529.9,459.2c2.6,4.2,7.2,6.7,12.1,6.7c5,0,9.5-2.5,12.1-6.7L638.2,325c24-38.2,24.5-85.8,1.4-121.2
		c-8-12.3-18.3-23-30.5-31.7c-39.5-28.3-94.7-28.3-134.3,0c-12.2,8.8-22.5,19.4-30.5,31.7c-23.1,35.4-22.5,83,1.4,121.2L529.9,459.2
		z M455.1,210.8c7.1-11,16.3-20.5,27.3-28.3c17.6-12.6,38.6-18.9,59.7-18.9c21.1,0,42.1,6.3,59.7,18.9c11,7.8,20.1,17.4,27.3,28.3
		c20.4,31.2,19.8,73.4-1.6,107.5l-84.1,134.1c-0.8,1.2-1.9,1.2-2.6,0l-84.1-134.2C435.3,284.2,434.7,242,455.1,210.8z"/>
	<path class="st0" d="M542,313.1c25.7,0,46.6-20.9,46.6-46.6s-20.9-46.6-46.6-46.6s-46.6,20.9-46.6,46.6S516.3,313.1,542,313.1z
		 M542,232.7c18.7,0,33.8,15.2,33.8,33.8s-15.2,33.8-33.8,33.8c-18.7,0-33.8-15.2-33.8-33.8S523.3,232.7,542,232.7z"/>
	<path class="st0" d="M817.3,574.2c33.9,0,61.4-27.6,61.4-62.6v-6.4h-0.2c0.2-1.9-0.3-3.9-1.8-5.4l-74.5-71.3H608.2
		c-3.5,0-6.4,2.9-6.4,6.4c0,3.5,2.9,6.4,6.4,6.4H625l19.5,63.9H441l19.5-63.9h17.2c3.5,0,6.4-2.9,6.4-6.4c0-3.5-2.9-6.4-6.4-6.4
		H276.3l-69.1,72.9c-1.5,1.6-1.9,3.8-1.5,5.8v5.7h-0.3c0,33.9,27.6,61.4,61.4,61.4c2,0,3.8-0.2,5.8-0.4V825h-71.4v12.8h664.5V825
		h-55.5V573.7C812.6,573.9,814.9,574.2,817.3,574.2z M817.3,561.4c-25.1,0-45.8-19.1-48.4-43.4h96.7
		C863,542.3,842.3,561.4,817.3,561.4z M755.6,517.9c-2.6,24.4-23.3,43.4-48.4,43.4c-24.7,0-45.2-18.6-48.3-43.4H755.6z M863.8,505.2
		h-97.3l-37.1-63.9h67.7L863.8,505.2z M638.3,441.2h76.3l37.1,63.9h-93.9L638.3,441.2z M645.4,517.9c-3.1,23.8-23.6,42.3-48.2,42.3
		c-24.7,0-45.1-18.4-48.2-42.3H645.4z M535.3,517.9c-3.1,23.8-23.6,42.3-48.2,42.3c-24.7,0-45.1-18.4-48.2-42.3H535.3z M427.7,505.2
		h-93.9l37.1-63.9h76.3L427.7,505.2z M425.4,517.9c-2.6,24.4-23.3,43.4-48.4,43.4c-25.1,0-45.8-19.1-48.4-43.4H425.4z M281.8,441.2
		h74.3L319,505.2h-97.8L281.8,441.2z M218.6,517.9h96.7c-2.6,24.4-23.3,43.4-48.4,43.4C241.9,561.4,221.2,542.3,218.6,517.9z
		 M797.6,825H285.5V571.2c16-5.1,29.1-16.4,36.5-31.2c10.1,20.2,30.9,34.2,55,34.2c24.2,0,45.2-14.1,55.2-35
		c10.1,20,30.9,33.8,54.8,33.8c24.1,0,45-13.9,55-34.2c10.1,20.2,30.9,34.2,55,34.2c23.8,0,44.6-13.7,54.7-33.6
		c9.9,20.6,31,34.8,55.3,34.8c24.1,0,45-13.9,55-34.2c7.2,14.4,19.9,25.5,35.4,30.8V825z"/>
	<path class="st0" d="M457.1,614.2h-80.8c-16.5,0-29.9,13.4-29.9,29.9v177.7h12.8v-94.1h115.1v94.4H487v-178
		C487,627.6,473.6,614.2,457.1,614.2z M359.1,715v-70.8c0-9.5,7.7-17.2,17.2-17.2h80.8c9.5,0,17.2,7.7,17.2,17.2V715H359.1z"/>
	<path class="st0" d="M707.9,614.2H573.1c-16.5,0-29.9,13.4-29.9,29.9v53.7c0,16.5,13.4,29.9,29.9,29.9h134.7
		c16.5,0,29.9-13.4,29.9-29.9v-53.7C737.8,627.6,724.4,614.2,707.9,614.2z M555.9,697.8v-53.7c0-9.5,7.7-17.2,17.2-17.2h61v88h-61
		C563.6,715,555.9,707.3,555.9,697.8z M725,697.8c0,9.5-7.7,17.2-17.2,17.2h-61v-88h61c9.5,0,17.2,7.7,17.2,17.2V697.8z"/>
</g>
</svg>
